Coordinates
version=1
nRows=8
nColumns=36
inDegrees=yes

Units are S.I. units (second, meters, Newtons, ...)
If the header above contains a line with 'inDegrees', this indicates whether rotational values are in degrees (yes) or radians (no).

endheader
time	pelvis_tilt	pelvis_list	pelvis_rotation	pelvis_tx	pelvis_ty	pelvis_tz	hip_flexion_r	hip_adduction_r	hip_rotation_r	knee_angle_r	knee_angle_r_beta	ankle_angle_r	subtalar_angle_r	mtp_angle_r	hip_flexion_l	hip_adduction_l	hip_rotation_l	knee_angle_l	knee_angle_l_beta	ankle_angle_l	subtalar_angle_l	mtp_angle_l	lumbar_extension	lumbar_bending	lumbar_rotation	arm_flex_r	arm_add_r	arm_rot_r	elbow_flex_r	pro_sup_r	arm_flex_l	arm_add_l	arm_rot_l	elbow_flex_l	pro_sup_l
      5.01666670	     -2.48127344	      1.62303154	      6.47757079	      0.28257338	      1.01748346	     -0.02333165	      4.17540801	     -0.25348930	     -6.02961978	     11.62616264	      0.20291482	    -32.03796575	    -12.54237532	     -7.49999987	     12.49202115	     -5.36704373	      3.72396545	     15.14795894	      0.26438176	    -37.74987925	    -13.29947926	     -7.49999987	      2.10375960	     -3.23281523	      3.46859163	    -12.13354577	    -30.94973696	     26.94932780	     83.17612539	     77.27834437	    -14.57885719	    -13.11537748	     16.03030181	    107.08155309	     70.84914735
      5.02083330	     -2.31675270	      1.98484106	      6.58518295	      0.28203841	      1.00992789	     -0.02372912	      3.68133313	     -0.54897405	     -5.84662738	     12.46780907	      0.21760432	    -27.89374916	    -12.93307637	     -7.49999987	     12.89078970	     -5.13516686	      3.71471107	     16.34218117	      0.28522487	    -36.95322282	    -12.90055422	     -7.49999987	      1.82344880	     -3.77971876	      3.32211708	    -12.56480077	    -31.42514775	     26.72468860	     85.67736055	     77.24213982	    -14.96792656	    -13.53083759	     16.32348966	    108.85119211	     70.83815643
      5.02500000	     -2.25084570	      2.29108290	      6.71911374	      0.27693179	      0.99564134	     -0.02758239	      3.82033553	     -0.91798184	     -5.99904131	     14.09037510	      0.24592344	    -24.05427085	    -14.56692208	     -7.49999987	     13.89622489	     -4.97548749	      3.41323164	     18.39154255	      0.32099297	    -35.71453624	    -12.92846091	     -7.49999987	      1.57585736	     -4.08732134	      3.23794480	    -12.58739243	    -31.84432146	     26.34693520	     87.41445867	     77.05490905	    -15.06712090	    -13.63222364	     16.82081390	    109.24111519	     70.72517553
      5.02916670	     -2.26037157	      2.55510917	      6.66947807	      0.27633188	      0.98963906	     -0.02731517	      4.22169387	     -1.21368290	     -5.45890705	     16.02450773	      0.27968042	    -20.78946926	    -16.54823509	     -7.49999987	     14.91555152	     -4.74909610	      3.72973645	     20.49478175	      0.35770142	    -34.30268763	    -13.22779129	     -7.49999987	      1.40909168	     -4.33802215	      3.46810865	    -13.02639864	    -32.08323119	     25.42121975	     89.31869221	     77.14550201	    -14.88698417	    -13.60449070	     17.82122353	    109.70462721	     70.80735327
      5.03333330	     -2.30442488	      2.84369860	      6.93872817	      0.28086942	      0.98528581	     -0.02311238	      4.30219410	     -1.27789818	     -5.33370562	     17.36005578	      0.30299013	    -16.50019719	    -17.16708661	     -7.49999987	     15.51842905	     -4.60934054	      4.16701074	     22.22876362	      0.38796511	    -31.92348049	    -12.57904470	     -7.49999987	      1.54251631	     -4.79934475	      3.78534258	    -14.11371646	    -31.84780837	     23.84575408	     90.88462780	     78.70987082	    -14.50674026	    -13.54362069	     18.98874072	    109.89852089	     71.61364569
      5.03750000	     -2.14000556	      2.86697913	      7.10447335	      0.27601373	      0.97861206	     -0.02775093	      4.81812324	     -1.14977647	     -4.45380326	     19.74712423	      0.34465234	    -12.68290131	    -18.88338574	     -7.49999987	     16.46006486	     -4.41138714	      6.01817042	     25.28058051	      0.44122937	    -28.45308818	    -12.24666983	     -7.49999987	      1.21041465	     -4.73949329	      3.64938433	    -14.08887492	    -32.29692142	     23.63289993	     92.56421845	     77.94257925	    -14.56119312	    -13.50593939	     19.40827477	    110.39236246	     71.10772058
      5.04166670	     -1.82490830	      2.85810694	      7.15632391	      0.28051024	      0.97411558	     -0.02340289	      4.71896778	     -0.81042802	     -3.45645265	     21.12576162	      0.36871410	     -8.80611185	    -20.51082960	     -7.49999987	     16.67646152	     -4.35088124	      8.11471146	     27.57004563	      0.48118807	    -24.01748383	    -10.82431406	     -7.49999987	      0.92623446	     -4.73275824	      3.61132172	    -14.31682077	    -32.50799276	     23.24344629	     94.01475761	     78.20661378	    -14.95733500	    -13.13606930	     18.94942858	    110.47559835	     71.13049236
      5.04583330	     -1.59034006	      2.64118296	      7.07090956	      0.28031757	      0.96588059	     -0.02408757	      4.80022654	     -0.29494466	     -2.66636956	     22.43864041	      0.39162815	     -5.95697929	    -21.90155804	     -7.49999987	     16.94780849	     -4.43394583	      9.83014280	     29.50607917	      0.51497823	    -20.52915342	    -10.68520233	     -7.49999987	      0.91480770	     -4.20570818	      3.56922343	    -14.50551058	    -32.49138499	     22.74548317	     94.75687518	     77.98292498	    -14.95059609	    -12.80476538	     18.04997233	    109.90239415	     70.79136689
